<svg width="24" height="24" viewBox="0 0 24 24" fill="none" xmlns="http://www.w3.org/2000/svg">
<path d="M14 13.9999H7C5.93913 13.9999 4.92172 13.5784 4.17157 12.8283C3.42143 12.0781 3 11.0607 3 9.99985C3 8.93899 3.42143 7.92157 4.17157 7.17143C4.92172 6.42128 5.93913 5.99985 7 5.99985H14M14 13.9999V5.99985V13.9999ZM14 13.9999L20.102 17.4869C20.1932 17.539 20.2965 17.5664 20.4015 17.5661C20.5066 17.5658 20.6097 17.538 20.7007 17.4853C20.7916 17.4327 20.8671 17.3571 20.9196 17.2661C20.9721 17.1751 20.9999 17.0719 21 16.9669V3.03285C21 2.92771 20.9724 2.8244 20.92 2.73327C20.8675 2.64214 20.792 2.5664 20.7011 2.51364C20.6102 2.46087 20.5069 2.43293 20.4018 2.43262C20.2966 2.43231 20.1933 2.45963 20.102 2.51185L14 5.99985V13.9999Z" stroke="black" stroke-width="1.5"/>
<path d="M7.757 19.3L7 14H11L11.677 18.74C11.7456 19.2571 11.6073 19.7804 11.2922 20.1962C10.977 20.6119 10.5106 20.8865 9.99419 20.9603C9.47776 21.0341 8.95309 20.9011 8.53419 20.5902C8.11528 20.2793 7.83599 19.8156 7.757 19.3V19.3Z" stroke="black" stroke-width="1.5"/>
</svg>
