<svg width="24" height="24" viewBox="0 0 24 24" fill="none" xmlns="http://www.w3.org/2000/svg">
<path d="M12.0666 7.3335C9.46657 7.3335 7.3999 9.40016 7.3999 12.0002C7.3999 14.6002 9.46657 16.6668 12.0666 16.6668C14.6666 16.6668 16.7332 14.6002 16.7332 12.0002C16.7332 9.40016 14.6666 7.3335 12.0666 7.3335ZM12.0666 15.3335C10.1999 15.3335 8.73324 13.8668 8.73324 12.0002C8.73324 10.1335 10.1999 8.66683 12.0666 8.66683C13.9332 8.66683 15.3999 10.1335 15.3999 12.0002C15.3999 13.8668 13.9332 15.3335 12.0666 15.3335Z" fill="black"/>
<path d="M21.8668 9.80016L20.0002 9.20016L19.6002 8.20016L20.5335 6.46683C20.7335 6.06683 20.6668 5.5335 20.3335 5.20016L18.7335 3.60016C18.4002 3.26683 17.8668 3.20016 17.4668 3.40016L15.7335 4.3335L14.7335 3.9335L14.1335 2.06683C14.0002 1.66683 13.6002 1.3335 13.1335 1.3335H10.8668C10.4002 1.3335 10.0002 1.66683 9.9335 2.1335L9.3335 4.00016C8.9335 4.06683 8.60016 4.20016 8.26683 4.40016L6.5335 3.46683C6.1335 3.26683 5.60016 3.3335 5.26683 3.66683L3.66683 5.26683C3.3335 5.60016 3.26683 6.1335 3.46683 6.5335L4.3335 8.20016C4.20016 8.5335 4.06683 8.9335 3.9335 9.26683L2.06683 9.86683C1.66683 10.0002 1.3335 10.4002 1.3335 10.8668V13.1335C1.3335 13.6002 1.66683 14.0002 2.1335 14.1335L4.00016 14.7335L4.40016 15.7335L3.46683 17.4668C3.26683 17.8668 3.3335 18.4002 3.66683 18.7335L5.26683 20.3335C5.60016 20.6668 6.1335 20.7335 6.5335 20.5335L8.26683 19.6002L9.26683 20.0002L9.86683 21.9335C10.0002 22.3335 10.4002 22.6668 10.8668 22.6668H13.1335C13.6002 22.6668 14.0002 22.3335 14.1335 21.9335L14.7335 20.0002L15.7335 19.6002L17.4668 20.5335C17.8668 20.7335 18.4002 20.6668 18.7335 20.3335L20.3335 18.7335C20.6668 18.4002 20.7335 17.8668 20.5335 17.4668L19.6002 15.7335L20.0002 14.7335L21.9335 14.1335C22.3335 14.0002 22.6668 13.6002 22.6668 13.1335V10.8668C22.6668 10.4002 22.3335 9.9335 21.8668 9.80016V9.80016ZM21.3335 12.9335L18.9335 13.6668L18.8668 14.0002L18.2668 15.4002L18.0668 15.7335L19.2668 17.9335L17.9335 19.2668L15.7335 18.0668L15.4002 18.2668C14.9335 18.5335 14.4668 18.7335 14.0002 18.8668L13.6668 18.9335L12.9335 21.3335H11.0668L10.3335 18.9335L10.0002 18.8668L8.60016 18.2668L8.26683 18.0668L6.06683 19.2668L4.7335 17.9335L5.9335 15.7335L5.7335 15.4002C5.46683 14.9335 5.26683 14.4668 5.1335 14.0002L5.06683 13.6668L2.66683 12.9335V11.0668L4.9335 10.4002L5.06683 10.0668C5.20016 9.5335 5.40016 9.06683 5.66683 8.60016L5.86683 8.26683L4.7335 6.06683L6.06683 4.7335L8.20016 5.9335L8.5335 5.7335C9.00016 5.46683 9.46683 5.26683 10.0002 5.1335L10.3335 5.00016L11.0668 2.66683H12.9335L13.6668 5.00016L14.0002 5.1335C14.4668 5.26683 14.9335 5.46683 15.4002 5.7335L15.7335 5.9335L17.9335 4.7335L19.2668 6.06683L18.0668 8.26683L18.2668 8.60016C18.5335 9.06683 18.7335 9.5335 18.8668 10.0002L18.9335 10.3335L21.3335 11.0668V12.9335V12.9335Z" fill="black"/>
</svg>
