<svg width="24" height="24" viewBox="0 0 24 24" fill="none" xmlns="http://www.w3.org/2000/svg">
<path d="M12.3075 3.00734C12.1991 3.00723 12.092 3.03065 11.9936 3.07597C11.8952 3.12129 11.8078 3.18744 11.7375 3.26984L11.6625 3.32384C9.40497 2.66084 6.84447 3.17384 5.05797 4.86434C3.47247 6.36284 2.86797 8.43584 3.23847 10.3753L3.21597 10.3963L2.20947 11.3488C2.00441 11.538 1.84075 11.7677 1.72881 12.0232C1.61687 12.2788 1.55908 12.5548 1.55908 12.8338C1.55908 13.1129 1.61687 13.3889 1.72881 13.6444C1.84075 13.9 2.00441 14.1296 2.20947 14.3188C2.72247 14.8063 3.42747 15.0043 4.09497 14.9128C4.19097 15.2623 4.38447 15.5938 4.67397 15.8683C5.06547 16.2388 5.56797 16.4413 6.08097 16.4773C6.11847 16.9618 6.33297 17.4373 6.72597 17.8078C7.11597 18.1783 7.61847 18.3808 8.13147 18.4168C8.16897 18.9013 8.38347 19.3768 8.77647 19.7473C9.1677 20.1089 9.67154 20.3246 10.2032 20.3582C10.7348 20.3918 11.2618 20.2413 11.6955 19.9318L12.1905 20.3998C13.0605 21.2248 14.475 21.2248 15.3465 20.3998C15.7365 20.0308 15.9525 19.5583 15.993 19.0753C16.503 19.0378 16.9995 18.8353 17.3895 18.4663C17.7795 18.0973 17.9955 17.6248 18.0345 17.1418C18.537 17.0998 19.0275 16.8973 19.4145 16.5343C19.716 16.2478 19.914 15.8983 20.0055 15.5308C20.3391 15.5732 20.678 15.5416 20.9981 15.4384C21.3183 15.3353 21.6118 15.163 21.858 14.9338C22.063 14.7446 22.2267 14.515 22.3386 14.2594C22.4506 14.0039 22.5084 13.7279 22.5084 13.4488C22.5084 13.1698 22.4506 12.8938 22.3386 12.6382C22.2267 12.3827 22.063 12.153 21.858 11.9638L20.967 11.1208L21.138 10.4908C21.5306 9.03108 21.3312 7.47533 20.583 6.16184C19.4805 4.20884 17.346 3.01184 15.048 3.01184H13.5195C13.4505 3.00866 13.3815 3.00716 13.3125 3.00734H12.306H12.3075ZM18.8655 11.1928L19.5945 11.9128C19.641 11.9578 19.692 11.9953 19.746 12.0268L20.769 12.9928C20.8318 13.0507 20.8819 13.121 20.9162 13.1992C20.9505 13.2774 20.9682 13.3619 20.9682 13.4473C20.9682 13.5328 20.9505 13.6172 20.9162 13.6955C20.8819 13.7737 20.8318 13.844 20.769 13.9018C20.6381 14.0229 20.4665 14.0901 20.2882 14.0901C20.11 14.0901 19.9383 14.0229 19.8075 13.9018L18.0975 12.2863C17.9492 12.1494 17.7548 12.0734 17.553 12.0734C17.3511 12.0734 17.1567 12.1494 17.0085 12.2863L16.9905 12.3013C16.6905 12.5863 16.6905 13.0483 16.9905 13.3333L18.324 14.5933C18.3868 14.6513 18.437 14.7217 18.4713 14.8001C18.5056 14.8784 18.5233 14.9631 18.5233 15.0486C18.5233 15.1341 18.5056 15.2187 18.4713 15.2971C18.437 15.3754 18.3868 15.4458 18.324 15.5038C18.2049 15.614 18.0517 15.6801 17.8898 15.691C17.728 15.7019 17.5673 15.657 17.4345 15.5638C17.2837 15.457 17.1006 15.4054 16.9162 15.4177C16.7318 15.43 16.5573 15.5054 16.422 15.6313C16.2913 15.753 16.212 15.9199 16.2003 16.0981C16.1886 16.2762 16.2454 16.4521 16.359 16.5898C16.4588 16.7119 16.5082 16.8675 16.497 17.0248C16.4858 17.182 16.415 17.3291 16.299 17.4358C16.1783 17.5475 16.0225 17.6138 15.8584 17.6234C15.6942 17.633 15.5318 17.5852 15.399 17.4883C15.2488 17.3786 15.0652 17.3242 14.8795 17.3346C14.6938 17.345 14.5174 17.4195 14.3805 17.5453C14.2483 17.667 14.1679 17.8347 14.1559 18.014C14.1439 18.1932 14.2012 18.3702 14.316 18.5083C14.526 18.7633 14.505 19.1338 14.256 19.3693C14.1231 19.4916 13.9491 19.5595 13.7685 19.5595C13.5879 19.5595 13.4139 19.4916 13.281 19.3693L12.798 18.9133L12.924 18.7948C13.129 18.6056 13.2927 18.376 13.4046 18.1204C13.5166 17.8649 13.5744 17.5889 13.5744 17.3098C13.5744 17.0308 13.5166 16.7548 13.4046 16.4992C13.2927 16.2437 13.129 16.014 12.924 15.8248C12.5397 15.4649 12.0424 15.2496 11.517 15.2158C11.4755 14.7074 11.2454 14.2328 10.872 13.8853C10.4884 13.5252 9.99155 13.3094 9.46647 13.2748C9.42499 12.7664 9.19493 12.2918 8.82147 11.9443C8.5712 11.7113 8.27205 11.537 7.94586 11.4342C7.61967 11.3315 7.27465 11.3028 6.93597 11.3503C6.83416 10.9852 6.63385 10.6552 6.35697 10.3963C6.1359 10.1895 5.87594 10.0286 5.59217 9.92301C5.30841 9.81743 5.0065 9.76928 4.70397 9.78134C4.62333 9.06577 4.7119 8.34127 4.96254 7.66621C5.21318 6.99114 5.61889 6.38439 6.14697 5.89484C6.66358 5.41242 7.27338 5.04075 7.9389 4.80266C8.60442 4.56457 9.3116 4.46509 10.017 4.51034L8.37447 5.69534C8.12242 5.87429 7.90982 6.10312 7.74989 6.36765C7.58995 6.63218 7.48608 6.92676 7.44473 7.2331C7.40338 7.53944 7.42542 7.85101 7.5095 8.14848C7.59357 8.44595 7.73788 8.72297 7.93347 8.96234C8.32801 9.44562 8.89142 9.76095 9.50967 9.84449C10.1279 9.92804 10.7548 9.77357 11.2635 9.41234L13.284 7.95734H15.444L18.8655 11.1928V11.1928ZM9.25197 6.91034L12.5865 4.50734H13.314C13.3765 4.50671 13.439 4.50821 13.5015 4.51184H15.0465C16.8345 4.51184 18.4545 5.44184 19.278 6.89984C19.806 7.83434 19.9635 8.90984 19.728 9.93884L16.41 6.67184C16.2698 6.53438 16.0813 6.45737 15.885 6.45734H13.0395C12.8823 6.45728 12.7291 6.50661 12.6015 6.59834L10.3875 8.19584C10.1903 8.33288 9.94886 8.39102 9.71089 8.35881C9.47291 8.3266 9.25565 8.20637 9.10197 8.02184C9.03401 7.94114 8.9837 7.84712 8.95426 7.74581C8.92482 7.6445 8.91691 7.53815 8.93103 7.4336C8.94516 7.32905 8.98102 7.22862 9.03629 7.13876C9.09156 7.0489 9.16503 6.9716 9.25197 6.91184V6.91034ZM10.875 16.8523C11.0061 16.7322 11.1777 16.6657 11.3556 16.6663C11.5334 16.6668 11.7046 16.7343 11.835 16.8553C11.8978 16.9132 11.9479 16.9835 11.9822 17.0617C12.0165 17.1399 12.0342 17.2244 12.0342 17.3098C12.0342 17.3953 12.0165 17.4797 11.9822 17.558C11.9479 17.6362 11.8978 17.7065 11.835 17.7643L10.827 18.7168C10.6962 18.8374 10.5249 18.9044 10.347 18.9044C10.1691 18.9044 9.99773 18.8374 9.86697 18.7168C9.80416 18.659 9.75402 18.5887 9.71973 18.5105C9.68543 18.4322 9.66773 18.3478 9.66773 18.2623C9.66773 18.1769 9.68543 18.0924 9.71973 18.0142C9.75402 17.936 9.80416 17.8657 9.86697 17.8078L10.875 16.8538V16.8523ZM9.78597 15.8218L8.77647 16.7773C8.64563 16.8984 8.47396 16.9656 8.29572 16.9656C8.11749 16.9656 7.94582 16.8984 7.81497 16.7773C7.75355 16.7207 7.70426 16.6521 7.67009 16.5758C7.63593 16.4995 7.61759 16.4171 7.61618 16.3335C7.61478 16.25 7.63035 16.167 7.66194 16.0896C7.69353 16.0122 7.74049 15.9421 7.79997 15.8833L7.81497 15.8683L8.82147 14.9158L8.83647 14.9008C8.96828 14.7861 9.13786 14.7241 9.3126 14.7269C9.48734 14.7297 9.65487 14.797 9.78297 14.9158C9.8455 14.9735 9.89546 15.0434 9.92972 15.1212C9.96399 15.1991 9.98182 15.2831 9.9821 15.3682C9.98238 15.4532 9.96511 15.5374 9.93136 15.6155C9.89761 15.6935 9.84812 15.7638 9.78597 15.8218V15.8218ZM7.73097 13.8853L6.72597 14.8363L6.70947 14.8513C6.57777 14.9657 6.40849 15.0274 6.2341 15.0246C6.05972 15.0218 5.89248 14.9548 5.76447 14.8363C5.70166 14.7785 5.65152 14.7082 5.61723 14.63C5.58293 14.5517 5.56523 14.4673 5.56523 14.3818C5.56523 14.2964 5.58293 14.2119 5.61723 14.1337C5.65152 14.0555 5.70166 13.9852 5.76447 13.9273L6.76947 12.9763C6.9004 12.8549 7.07239 12.7874 7.25097 12.7874C7.42956 12.7874 7.60155 12.8549 7.73247 12.9763C7.7939 13.033 7.84318 13.1016 7.87735 13.1779C7.91152 13.2541 7.92986 13.3366 7.93126 13.4201C7.93267 13.5037 7.9171 13.5867 7.88551 13.6641C7.85392 13.7415 7.80696 13.8116 7.74747 13.8703L7.73247 13.8853H7.73097ZM5.26797 12.3358L4.26297 13.2883C4.13205 13.4098 3.96006 13.4773 3.78147 13.4773C3.60289 13.4773 3.4309 13.4098 3.29997 13.2883C3.23716 13.2305 3.18702 13.1602 3.15273 13.082C3.11843 13.0037 3.10073 12.9193 3.10073 12.8338C3.10073 12.7484 3.11843 12.6639 3.15273 12.5857C3.18702 12.5075 3.23716 12.4372 3.29997 12.3793L4.30647 11.4268C4.43732 11.3058 4.60899 11.2386 4.78722 11.2386C4.96546 11.2386 5.13713 11.3058 5.26797 11.4268C5.33079 11.4847 5.38093 11.555 5.41522 11.6332C5.44952 11.7114 5.46722 11.7959 5.46722 11.8813C5.46722 11.9668 5.44952 12.0512 5.41522 12.1295C5.38093 12.2077 5.33079 12.278 5.26797 12.3358V12.3358Z" fill="black"/>
</svg>
