<svg width="275" height="275" viewBox="0 0 275 275" fill="none" xmlns="http://www.w3.org/2000/svg">
<path d="M56 180V80.928H72.704L106.544 159.84H107.264L140.96 80.928H157.664V180H145.568V100.8H144.992L111.152 180H102.08L68.24 100.8H67.664V180H56Z" fill="#90BCCB"/>
<path d="M194.6 80H206.6V125H194.6V80Z" fill="#90BCCB"/>
<path d="M194.168 230V141.872H162.92V130.928H237.944V141.872H206.552V230H194.168Z" fill="#90BCCB"/>
<mask id="path-2-inside-1_301_11" fill="white">
<path d="M0 0H275V275H0V0Z"/>
</mask>
<path d="M0 0V-10H-10V0H0ZM275 0H285V-10H275V0ZM275 275V285H285V275H275ZM0 275H-10V285H0V275ZM0 10H275V-10H0V10ZM265 0V275H285V0H265ZM275 265H0V285H275V265ZM10 275V0H-10V275H10Z" fill="#90BCCB" mask="url(#path-2-inside-1_301_11)"/>
</svg>
